<?xml version="1.0" standalone="no"?>
<!DOCTYPE svg PUBLIC "-//W3C//DTD SVG 20010904//EN"
 "http://www.w3.org/TR/2001/REC-SVG-20010904/DTD/svg10.dtd">
<svg version="1.0" xmlns="http://www.w3.org/2000/svg"
 width="200.000000pt" height="180.000000pt" viewBox="0 0 200.000000 180.000000"
 preserveAspectRatio="xMidYMid meet">

<g transform="translate(0.000000,180.000000) scale(0.100000,-0.100000)"
fill="#000000" stroke="none">
<path d="M122 1689 c-50 -25 -99 -80 -113 -129 -6 -23 -9 -261 -7 -681 l3
-645 28 -42 c15 -23 46 -54 69 -69 l42 -28 835 -3 c584 -2 847 0 874 8 49 14
106 65 128 115 17 37 19 83 19 683 0 702 2 682 -58 746 -15 16 -45 37 -67 47
-38 18 -84 19 -875 19 -830 0 -835 0 -878 -21z m1375 -107 c11 -44 -26 -79
-71 -68 -49 12 -53 79 -6 103 30 15 68 -2 77 -35z m172 6 c13 -23 13 -29 -2
-52 -34 -52 -111 -25 -105 38 6 58 77 67 107 14z m155 21 c30 -23 33 -45 10
-77 -28 -41 -104 -18 -104 32 0 26 9 39 35 54 27 15 28 15 59 -9z m94 -756
l-3 -588 -24 -34 c-45 -63 -11 -61 -889 -61 -545 0 -809 3 -830 11 -17 6 -43
27 -59 47 l-28 37 -3 588 -3 587 921 0 920 0 -2 -587z"/>
<path d="M293 935 c-29 -20 -38 -62 -18 -91 8 -13 36 -34 62 -46 57 -28 73
-49 53 -73 -11 -14 -25 -16 -66 -12 -40 4 -54 2 -58 -9 -9 -22 32 -37 92 -32
60 5 92 30 92 73 0 32 -35 72 -74 85 -84 27 -82 84 3 79 46 -3 68 14 40 32
-22 14 -103 10 -126 -6z"/>
<path d="M482 813 c3 -135 4 -138 26 -141 21 -3 22 0 22 63 l0 66 63 -3 62 -3
3 -62 c3 -55 6 -63 22 -63 19 0 20 8 20 140 0 133 -1 140 -20 140 -18 0 -20
-7 -20 -55 l0 -55 -65 0 -65 0 0 55 c0 52 -1 55 -25 55 l-26 0 3 -137z"/>
<path d="M832 933 c-21 -40 -92 -233 -92 -248 0 -31 43 -13 54 23 9 31 10 32
68 32 58 0 59 -1 74 -35 9 -23 21 -35 34 -35 29 0 25 20 -29 155 -42 107 -50
120 -74 123 -17 2 -29 -3 -35 -15z m63 -113 l14 -40 -45 0 c-50 0 -50 -1 -17
79 17 39 22 35 48 -39z"/>
<path d="M1153 938 c-25 -12 -27 -16 -14 -37 8 -12 12 -12 25 -2 8 7 30 11 48
9 27 -2 34 -8 36 -29 2 -20 -9 -40 -47 -81 -51 -55 -76 -102 -65 -119 3 -5 43
-9 90 -9 77 0 84 2 84 20 0 18 -7 20 -60 20 -36 0 -60 4 -60 11 0 5 24 35 52
65 45 48 53 61 53 96 0 28 -6 44 -20 54 -22 16 -90 17 -122 2z"/>
<path d="M1376 928 c-3 -13 -6 -44 -6 -69 l0 -46 40 -6 c50 -6 70 -22 70 -53
0 -30 -31 -46 -83 -42 -32 2 -43 -1 -45 -13 -3 -19 24 -29 80 -29 52 0 92 36
92 83 0 45 -25 74 -76 87 -33 9 -38 15 -38 40 0 30 1 30 55 30 48 0 55 2 55
20 0 18 -7 20 -69 20 -63 0 -69 -2 -75 -22z"/>
<path d="M1660 939 c-71 -28 -112 -118 -90 -197 13 -49 42 -72 88 -72 66 0
114 81 82 140 -12 23 -65 42 -98 33 -21 -5 -24 -3 -19 11 4 10 7 19 7 22 0 8
60 34 80 34 13 0 20 7 20 20 0 22 -27 26 -70 9z m28 -141 c14 -14 16 -57 3
-76 -5 -8 -21 -12 -37 -10 -22 2 -30 10 -37 35 -5 18 -7 39 -4 47 8 19 58 21
75 4z"/>
<path d="M1000 790 c0 -18 7 -20 55 -20 48 0 55 2 55 20 0 18 -7 20 -55 20
-48 0 -55 -2 -55 -20z"/>
</g>
</svg>
